<?xml version="1.0" encoding="UTF-8"?>
<svg width="45px" height="29px" viewBox="0 0 45 29" version="1.1" xmlns="http://www.w3.org/2000/svg" xmlns:xlink="http://www.w3.org/1999/xlink">
    <!-- Generator: Sketch 52.5 (67469) - http://www.bohemiancoding.com/sketch -->
    <title>Group 7</title>
    <desc>Created with Sketch.</desc>
    <g stroke="none" stroke-width="1" fill="none" fill-rule="evenodd">
        <g transform="translate(-165.000000, -6287.000000)" fill="#FFFFFF" fill-rule="nonzero">
            <g transform="translate(-60.000000, 6153.000000)">
                <g transform="translate(225.000000, 134.000000)">
                    <path d="M22,10.5487894 C22,4.72285271 17.0890964,0 11.0299869,0 C4.97087749,0 0.57309344,4.56010262 0.0599738588,10.3653726 C-0.723406611,19.2236277 6.27489971,26.640382 14.7711928,29 C11.8751567,27.3161824 9.85491622,24.387714 9.51803038,20.9818454 C10.0139564,21.0495288 10.5157928,21.0975788 11.0299869,21.0975788 C17.0890964,21.0975788 22,16.3752427 22,10.5487894 Z"></path>
                    <path d="M45,10.5487894 C45,4.72285271 40.0893362,0 34.0299854,0 C27.9717092,0 23.5736026,4.56010262 23.0599709,10.3653726 C22.2766286,19.2236277 29.2745932,26.640382 37.7710086,29 C34.8751139,27.3161824 32.8555094,24.387714 32.5181027,20.9818454 C33.0140046,21.0495288 33.5163536,21.0975788 34.0299854,21.0975788 C40.0893362,21.0975788 45,16.3752427 45,10.5487894 Z"></path>
                </g>
            </g>
        </g>
    </g>
</svg>
